<svg id="Capa_1" enable-background="new 0 0 512 512" height="512" viewBox="0 0 512 512" width="512" xmlns="http://www.w3.org/2000/svg"><g><path d="m497 30h-48.57c-6.191-17.461-22.873-30-42.43-30s-36.239 12.539-42.43 30h-215.14c-6.191-17.461-22.873-30-42.43-30s-36.239 12.539-42.43 30h-48.57c-8.284 0-15 6.716-15 15v60c0 8.284 6.716 15 15 15h16v286c0 8.284 6.716 15 15 15h195v61h-15c-8.284 0-15 6.716-15 15s6.716 15 15 15h60c8.284 0 15-6.716 15-15s-6.716-15-15-15h-15v-61h195c8.284 0 15-6.716 15-15v-286h16c8.284 0 15-6.716 15-15v-60c0-8.284-6.716-15-15-15zm-46 361h-390v-271h390zm31-301h-452v-30h46c8.284 0 15-6.716 15-15 0-8.271 6.729-15 15-15s15 6.729 15 15c0 8.284 6.716 15 15 15h240c8.284 0 15-6.716 15-15 0-8.271 6.729-15 15-15s15 6.729 15 15c0 8.284 6.716 15 15 15h46z"/><path d="m106 241c8.284 0 15-6.716 15-15 0-8.271 6.729-15 15-15s15 6.729 15 15c0 6.322-3.994 12-9.939 14.129-11.999 4.298-20.061 15.747-20.061 28.489v2.382c0 8.284 6.716 15 15 15s15-6.716 15-15v-2.382c0-.106.074-.209.178-.246 17.838-6.39 29.822-23.418 29.822-42.372 0-24.813-20.187-45-45-45s-45 20.187-45 45c0 8.284 6.716 15 15 15z"/><circle cx="136" cy="316" r="15"/><path d="m316 211h90c8.284 0 15-6.716 15-15s-6.716-15-15-15h-90c-8.284 0-15 6.716-15 15s6.716 15 15 15z"/><path d="m226 271h180c8.284 0 15-6.716 15-15s-6.716-15-15-15h-180c-8.284 0-15 6.716-15 15s6.716 15 15 15z"/><path d="m226 331h90c8.284 0 15-6.716 15-15s-6.716-15-15-15h-90c-8.284 0-15 6.716-15 15s6.716 15 15 15z"/><path d="m226 211h30c8.284 0 15-6.716 15-15s-6.716-15-15-15h-30c-8.284 0-15 6.716-15 15s6.716 15 15 15z"/><path d="m406 301h-30c-8.284 0-15 6.716-15 15s6.716 15 15 15h30c8.284 0 15-6.716 15-15s-6.716-15-15-15z"/></g></svg>